<svg viewBox="0 0 40 40" fill="none" xmlns="http://www.w3.org/2000/svg">
  <!-- Orange background shape -->
  <path
    d="M8 4C8 2.89543 8.89543 2 10 2H30C31.1046 2 32 2.89543 32 4V36C32 37.1046 31.1046 38 30 38H10C8.89543 38 8 37.1046 8 36V4Z"
    fill="#F97316"
    stroke="#F97316"
    stroke-width="0.5"
  />
  <!-- P shape cutout -->
  <path
    d="M12 8C12 6.89543 12.8954 6 14 6H24C25.1046 6 26 6.89543 26 8V18C26 19.1046 25.1046 20 24 20H20V28C20 29.1046 19.1046 30 18 30H14C12.8954 30 12 29.1046 12 28V8Z"
    fill="white"
  />
  <!-- P vertical line -->
  <rect x="14" y="6" width="2" height="24" fill="#F97316" />
  <!-- P horizontal line -->
  <rect x="14" y="6" width="8" height="2" fill="#F97316" />
  <!-- P middle line -->
  <rect x="14" y="12" width="8" height="2" fill="#F97316" />
</svg>
